<svg xmlns="http://www.w3.org/2000/svg" xmlns:xlink="http://www.w3.org/1999/xlink" id="Layer_1" width="100%" x="0" y="0" enable-background="new 0 0 1024 1024" version="1.1" viewBox="0 0 1024 1024" xml:space="preserve"><path fill="#FFF" stroke="none" d="M498.000000,1025.000000 C332.000000,1025.000000 166.500000,1025.000000 1.000000,1025.000000 C1.000000,683.666687 1.000000,342.333344 1.000000,1.000000 C342.333344,1.000000 683.666687,1.000000 1025.000000,1.000000 C1025.000000,342.333344 1025.000000,683.666687 1025.000000,1025.000000 C849.500000,1025.000000 674.000000,1025.000000 498.000000,1025.000000 M775.138916,780.357849 C774.306030,780.341736 773.473145,780.311401 772.640259,780.311401 C613.351440,780.311462 454.062653,780.307251 294.773834,780.327576 C281.452606,780.329224 268.131378,780.495972 254.029221,780.306030 C252.703049,781.028259 250.293289,781.666321 250.229553,782.486633 C249.862534,787.210449 250.050690,791.977539 250.050690,796.652832 C426.099457,796.652832 601.385254,796.652832 776.866272,796.652832 C776.866272,791.567688 776.866272,786.776489 776.953369,781.467346 C776.875854,781.310425 776.798340,781.153442 776.718994,780.600037 C776.718994,780.600037 776.401306,780.364807 776.401306,780.364807 C776.401306,780.364807 776.060303,780.564941 775.138916,780.357849 M709.799255,821.638550 C709.799255,816.549500 709.799255,811.460449 709.799255,806.070251 C707.958069,806.070251 706.649780,806.070312 705.341492,806.070251 C577.736877,806.068848 450.132233,806.064209 322.527588,806.104187 C321.017639,806.104614 319.507874,806.680176 317.780487,807.904785 C317.780487,812.663574 317.780487,817.422363 317.780487,822.358765 C320.477203,822.358765 322.465881,822.358704 324.454559,822.358765 C448.503479,822.361572 572.552368,822.366943 696.601318,822.356201 C700.754822,822.355835 704.908386,822.193115 709.799255,821.638550 M737.765991,771.566772 C737.509155,766.393372 737.252319,761.219910 736.077393,755.839905 C701.394226,755.841187 666.711121,755.842468 631.772339,755.094177 C631.363953,752.809021 630.936096,750.527222 630.550110,748.238281 C622.056702,697.872864 613.509766,647.516357 605.094788,597.137878 C596.871582,547.907471 588.908508,498.633301 580.602051,449.417053 C571.908936,397.910034 562.635925,346.498840 554.275757,294.938843 C551.623779,278.583221 547.495483,263.461456 537.193115,249.995102 C528.558655,238.708832 521.391968,226.299637 513.478394,214.239792 C512.708069,214.903824 512.255798,215.152130 512.001892,215.532745 C500.268677,233.118790 488.522095,250.696198 476.886810,268.346954 C475.838806,269.936768 475.221161,271.959686 474.911469,273.864014 C471.092682,297.346375 467.442871,320.856323 463.602448,344.335083 C457.774628,379.964203 451.837219,415.575378 445.935669,451.192413 C438.456940,496.327881 430.981567,541.463867 423.478577,586.595337 C416.330231,629.593567 409.170227,672.590027 401.967957,715.579224 C399.715729,729.022583 397.309357,742.440002 394.040009,755.840149 C380.430359,755.826965 366.820618,755.779968 353.211060,755.808350 C332.138550,755.852295 311.066101,755.947754 289.214783,756.395264 C289.212372,761.264343 289.209930,766.133484 289.441498,771.837708 C291.260406,771.932617 293.079315,772.110413 294.898224,772.110596 C439.601837,772.126709 584.305420,772.130127 729.009033,772.123291 C731.666687,772.123169 734.324280,771.989136 737.765991,771.566772 z" opacity="1"/><path fill="#1684CB" stroke="none" d="M394.973572,755.869324 C397.309357,742.440002 399.715729,729.022583 401.967957,715.579224 C409.170227,672.590027 416.330231,629.593567 423.478577,586.595337 C430.981567,541.463867 438.456940,496.327881 445.935669,451.192413 C451.837219,415.575378 457.774628,379.964203 463.602448,344.335083 C467.442871,320.856323 471.092682,297.346375 474.911469,273.864014 C475.221161,271.959686 475.838806,269.936768 476.886810,268.346954 C488.522095,250.696198 500.268677,233.118790 512.001892,215.532745 C512.255798,215.152130 512.708069,214.903824 513.478394,214.239792 C521.391968,226.299637 528.558655,238.708832 537.193115,249.995102 C547.495483,263.461456 551.623779,278.583221 554.275757,294.938843 C562.635925,346.498840 571.908936,397.910034 580.602051,449.417053 C588.908508,498.633301 596.871582,547.907471 605.094788,597.137878 C613.509766,647.516357 622.056702,697.872864 630.550110,748.238281 C630.936096,750.527222 631.363953,752.809021 632.158508,755.802002 C633.345764,756.671326 634.146729,756.973694 634.947937,756.974304 C667.728943,756.998413 700.510010,757.005615 733.290955,756.955566 C734.526245,756.953674 735.760620,756.362915 736.995422,756.046509 C737.252319,761.219910 737.509155,766.393372 737.070618,771.459351 C734.393921,771.234619 732.412537,771.014771 730.431213,771.014526 C583.356628,770.999451 436.282074,771.001709 289.207520,771.002563 C289.209930,766.133484 289.212372,761.264343 289.901367,756.502563 C291.233276,756.736816 291.878510,756.974670 292.523895,756.975037 C325.475983,756.995117 358.428070,757.006836 391.380035,756.949402 C392.578522,756.947327 393.775757,756.245239 394.973572,755.869324 M518.557739,756.539673 C519.196106,756.689209 519.834412,756.969116 520.472900,756.969666 C551.445374,756.994751 582.417786,757.008545 613.390198,756.950928 C614.583984,756.948730 615.776489,756.234009 617.084839,755.009094 C615.190552,743.196228 613.162048,731.402344 611.482605,719.559021 C610.967102,715.923645 609.486084,714.301941 605.900879,713.315308 C585.875977,707.804138 565.936401,701.983643 545.959534,696.297241 C536.752014,693.676270 527.526062,691.120056 517.631958,688.344727 C517.631958,698.232544 517.584229,707.356140 517.643311,716.479065 C517.728455,729.617493 517.891174,742.755371 518.557739,756.539673 M518.097534,661.410095 C547.565002,671.631775 577.032471,681.853394 607.020996,692.255798 C606.876099,690.598450 606.857727,689.628235 606.698730,688.681702 C603.832397,671.618835 600.939575,654.560364 598.071106,637.497864 C589.271973,585.158569 580.639099,532.790710 571.645142,480.484955 C561.213135,419.815704 550.486633,359.197021 539.832214,298.566162 C538.482117,290.883392 538.257996,282.539062 534.926270,275.774963 C529.700623,265.165924 522.271790,255.642044 515.181458,244.744736 C515.181458,248.458511 515.133118,251.035645 515.188965,253.610504 C515.748657,279.416595 516.325500,305.222351 516.346130,331.643372 C516.231689,332.625366 516.017090,333.607330 516.016907,334.589325 C516.000916,441.946381 515.995239,549.303467 516.060547,656.660461 C516.061401,658.092163 516.973206,659.523315 518.097534,661.410095 z" opacity="1"/><path fill="#1C87CC" stroke="none" d="M776.866272,781.985291 C776.866272,786.776489 776.866272,791.567688 776.866272,796.652832 C601.385254,796.652832 426.099457,796.652832 250.050690,796.652832 C250.050690,791.977539 249.862534,787.210449 250.229553,782.486633 C250.293289,781.666321 252.703049,781.028259 254.161575,780.605774 C253.528961,781.066406 252.763992,781.227234 251.999023,781.388062 C252.009308,781.587158 252.019577,781.786194 252.029861,781.985291 C426.975342,781.985291 601.920776,781.985291 776.866272,781.985291 z" opacity="1"/><path fill="#1784CC" stroke="none" d="M317.998016,806.987244 C319.507874,806.680176 321.017639,806.104614 322.527588,806.104187 C450.132233,806.064209 577.736877,806.068848 705.341492,806.070251 C706.649780,806.070312 707.958069,806.070251 709.799255,806.070251 C709.799255,811.460449 709.799255,816.549500 709.145996,821.554199 C706.520813,821.313171 704.549011,821.020142 702.577087,821.019653 C608.421265,820.997498 514.265503,821.000610 420.109680,821.000732 C388.446655,821.000793 356.782410,820.858459 325.121857,821.139038 C319.821350,821.186035 318.433685,819.554688 318.898560,814.659058 C319.136536,812.152893 318.331604,809.547668 317.998016,806.987244 z" opacity="1"/><path fill="#0772C3" stroke="none" d="M776.909790,781.726318 C601.920776,781.985291 426.975342,781.985291 252.029861,781.985291 C252.019577,781.786194 252.009308,781.587158 251.999023,781.388062 C252.763992,781.227234 253.528961,781.066406 254.552032,780.745728 C268.131378,780.495972 281.452606,780.329224 294.773834,780.327576 C454.062653,780.307251 613.351440,780.311462 772.640259,780.311401 C773.473145,780.311401 774.306030,780.341736 775.678101,780.573853 C776.363525,780.911316 776.531372,780.980225 776.720764,780.996460 C776.798340,781.153442 776.875854,781.310425 776.909790,781.726318 z" opacity="1"/><path fill="#0A71BF" stroke="none" d="M289.324524,771.420166 C436.282074,771.001709 583.356628,770.999451 730.431213,771.014526 C732.412537,771.014771 734.393921,771.234619 736.678589,771.634766 C734.324280,771.989136 731.666687,772.123169 729.009033,772.123291 C584.305420,772.130127 439.601837,772.126709 294.898224,772.110596 C293.079315,772.110413 291.260406,771.932617 289.324524,771.420166 z" opacity="1"/><path fill="#0772C3" stroke="none" d="M317.889252,807.446045 C318.331604,809.547668 319.136536,812.152893 318.898560,814.659058 C318.433685,819.554688 319.821350,821.186035 325.121857,821.139038 C356.782410,820.858459 388.446655,821.000793 420.109680,821.000732 C514.265503,821.000610 608.421265,820.997498 702.577087,821.019653 C704.549011,821.020142 706.520813,821.313171 708.777283,821.787964 C704.908386,822.193115 700.754822,822.355835 696.601318,822.356201 C572.552368,822.366943 448.503479,822.361572 324.454559,822.358765 C322.465881,822.358704 320.477203,822.358765 317.780487,822.358765 C317.780487,817.422363 317.780487,812.663574 317.889252,807.446045 z" opacity="1"/><path fill="#0A71BF" stroke="none" d="M394.506775,755.854736 C393.775757,756.245239 392.578522,756.947327 391.380035,756.949402 C358.428070,757.006836 325.475983,756.995117 292.523895,756.975037 C291.878510,756.974670 291.233276,756.736816 290.290802,756.315552 C311.066101,755.947754 332.138550,755.852295 353.211060,755.808350 C366.820618,755.779968 380.430359,755.826965 394.506775,755.854736 z" opacity="1"/><path fill="#0A71BF" stroke="none" d="M736.536377,755.943237 C735.760620,756.362915 734.526245,756.953674 733.290955,756.955566 C700.510010,757.005615 667.728943,756.998413 634.947937,756.974304 C634.146729,756.973694 633.345764,756.671326 632.286316,756.176758 C666.711121,755.842468 701.394226,755.841187 736.536377,755.943237 z" opacity="1"/><path fill="#1C87CC" stroke="none" d="M776.719849,780.798218 C776.531372,780.980225 776.363525,780.911316 776.138794,780.677368 C776.060303,780.564941 776.401306,780.364807 776.401306,780.364807 C776.401306,780.364807 776.718994,780.600037 776.719849,780.798218 z" opacity="1"/><path fill="#FDFEFE" stroke="none" d="M516.897522,331.028198 C516.325500,305.222351 515.748657,279.416595 515.188965,253.610504 C515.133118,251.035645 515.181458,248.458511 515.181458,244.744736 C522.271790,255.642044 529.700623,265.165924 534.926270,275.774963 C538.257996,282.539062 538.482117,290.883392 539.832214,298.566162 C550.486633,359.197021 561.213135,419.815704 571.645142,480.484955 C580.639099,532.790710 589.271973,585.158569 598.071106,637.497864 C600.939575,654.560364 603.832397,671.618835 606.698730,688.681702 C606.857727,689.628235 606.876099,690.598450 607.020996,692.255798 C577.032471,681.853394 547.565002,671.631775 517.824524,660.719482 C517.512512,573.655396 517.508484,487.281799 517.411377,400.908295 C517.385193,377.614746 517.076477,354.321564 516.897522,331.028198 z" opacity="1"/><path fill="#FCFDFE" stroke="none" d="M518.020813,755.893433 C517.891174,742.755371 517.728455,729.617493 517.643311,716.479065 C517.584229,707.356140 517.631958,698.232544 517.631958,688.344727 C527.526062,691.120056 536.752014,693.676270 545.959534,696.297241 C565.936401,701.983643 585.875977,707.804138 605.900879,713.315308 C609.486084,714.301941 610.967102,715.923645 611.482605,719.559021 C613.162048,731.402344 615.190552,743.196228 616.560791,755.411011 C583.364807,755.839722 550.692810,755.866577 518.020813,755.893433 z" opacity="1"/><path fill="#0772C3" stroke="none" d="M516.621826,331.335785 C517.076477,354.321564 517.385193,377.614746 517.411377,400.908295 C517.508484,487.281799 517.512512,573.655396 517.505676,660.491821 C516.973206,659.523315 516.061401,658.092163 516.060547,656.660461 C515.995239,549.303467 516.000916,441.946381 516.016907,334.589325 C516.017090,333.607330 516.231689,332.625366 516.621826,331.335785 z" opacity="1"/><path fill="#0772C3" stroke="none" d="M518.289307,756.216553 C550.692810,755.866577 583.364807,755.839722 616.503174,755.832031 C615.776489,756.234009 614.583984,756.948730 613.390198,756.950928 C582.417786,757.008545 551.445374,756.994751 520.472900,756.969666 C519.834412,756.969116 519.196106,756.689209 518.289307,756.216553 z" opacity="1"/></svg>